<svg width="50" height="50" viewBox="0 0 50 50" fill="none" xmlns="http://www.w3.org/2000/svg">
<path d="M38.2583 11.7419L35.3125 14.6877C32.9269 12.3019 29.7879 10.817 26.4302 10.4861C23.0725 10.1552 19.704 10.9988 16.8986 12.8731C14.0932 14.7474 12.0245 17.5364 11.0449 20.765C10.0653 23.9936 10.2355 27.4619 11.5264 30.5791C12.8174 33.6963 15.1492 36.2694 18.1246 37.8601C21.1001 39.4507 24.535 39.9605 27.8441 39.3025C31.1532 38.6445 34.1319 36.8594 36.2724 34.2515C38.413 31.6436 39.5831 28.3741 39.5833 25.0002H43.75C43.75 29.3381 42.2458 33.5418 39.4938 36.895C36.7419 40.2483 32.9124 42.5435 28.6578 43.3898C24.4032 44.236 19.9869 43.5809 16.1612 41.536C12.3355 39.4911 9.33723 36.1829 7.67721 32.1752C6.01719 28.1675 5.79815 23.7082 7.05741 19.5571C8.31667 15.406 10.9763 11.8199 14.5832 9.4099C18.19 6.99991 22.5209 5.91511 26.8379 6.34033C31.155 6.76554 35.191 8.67447 38.2583 11.7419Z" fill="#3B82F6"/>
</svg>
