<svg width="696" height="497" viewBox="0 0 696 497" fill="none" xmlns="http://www.w3.org/2000/svg">
<rect width="696" height="497" fill="white"/>
<rect x="320" y="225" width="89" height="48" rx="9" fill="#FEFEFE" stroke="#EFEFEF" stroke-width="2"/>
<path d="M360.035 253V242.5H366.86V244.135H362.06V246.94H365.915V248.53H362.06V253H360.035ZM368.37 253V245.455H370.395V253H368.37ZM369.39 244.42C369.02 244.42 368.72 244.31 368.49 244.09C368.26 243.87 368.145 243.595 368.145 243.265C368.145 242.935 368.26 242.665 368.49 242.455C368.72 242.235 369.02 242.125 369.39 242.125C369.76 242.125 370.06 242.235 370.29 242.455C370.53 242.665 370.65 242.935 370.65 243.265C370.65 243.595 370.53 243.87 370.29 244.09C370.06 244.31 369.76 244.42 369.39 244.42ZM372.427 253V242.2H374.452V253H372.427ZM380.056 253.18C379.296 253.18 378.621 253.02 378.031 252.7C377.451 252.37 376.996 251.915 376.666 251.335C376.346 250.745 376.186 250.065 376.186 249.295C376.186 248.515 376.346 247.825 376.666 247.225C376.986 246.615 377.436 246.14 378.016 245.8C378.606 245.45 379.286 245.275 380.056 245.275C380.806 245.275 381.461 245.44 382.021 245.77C382.581 246.09 383.016 246.535 383.326 247.105C383.646 247.665 383.806 248.3 383.806 249.01C383.806 249.11 383.801 249.22 383.791 249.34C383.791 249.46 383.781 249.59 383.761 249.73H377.626V248.485H381.751C381.721 248.005 381.546 247.625 381.226 247.345C380.916 247.055 380.526 246.91 380.056 246.91C379.716 246.91 379.401 246.99 379.111 247.15C378.821 247.31 378.591 247.55 378.421 247.87C378.261 248.18 378.181 248.58 378.181 249.07V249.505C378.181 249.915 378.256 250.275 378.406 250.585C378.566 250.885 378.786 251.12 379.066 251.29C379.346 251.45 379.671 251.53 380.041 251.53C380.411 251.53 380.716 251.45 380.956 251.29C381.206 251.13 381.396 250.92 381.526 250.66H383.581C383.441 251.14 383.206 251.57 382.876 251.95C382.546 252.33 382.141 252.63 381.661 252.85C381.181 253.07 380.646 253.18 380.056 253.18ZM388.539 253.18C387.849 253.18 387.249 253.07 386.739 252.85C386.229 252.63 385.829 252.33 385.539 251.95C385.249 251.56 385.084 251.115 385.044 250.615H387.054C387.104 250.805 387.189 250.98 387.309 251.14C387.429 251.29 387.589 251.41 387.789 251.5C387.989 251.59 388.229 251.635 388.509 251.635C388.779 251.635 388.999 251.6 389.169 251.53C389.339 251.45 389.464 251.345 389.544 251.215C389.634 251.085 389.679 250.95 389.679 250.81C389.679 250.6 389.619 250.44 389.499 250.33C389.379 250.22 389.199 250.13 388.959 250.06C388.729 249.98 388.454 249.91 388.134 249.85C387.774 249.77 387.424 249.68 387.084 249.58C386.744 249.48 386.434 249.35 386.154 249.19C385.884 249.03 385.669 248.825 385.509 248.575C385.349 248.315 385.269 248.005 385.269 247.645C385.269 247.195 385.389 246.795 385.629 246.445C385.869 246.085 386.219 245.8 386.679 245.59C387.139 245.38 387.689 245.275 388.329 245.275C389.239 245.275 389.959 245.48 390.489 245.89C391.029 246.3 391.344 246.865 391.434 247.585H389.529C389.479 247.345 389.349 247.16 389.139 247.03C388.929 246.9 388.659 246.835 388.329 246.835C387.969 246.835 387.694 246.9 387.504 247.03C387.324 247.16 387.234 247.325 387.234 247.525C387.234 247.665 387.294 247.79 387.414 247.9C387.534 248.01 387.709 248.105 387.939 248.185C388.169 248.265 388.449 248.34 388.779 248.41C389.359 248.53 389.864 248.665 390.294 248.815C390.734 248.965 391.079 249.185 391.329 249.475C391.589 249.755 391.714 250.165 391.704 250.705C391.714 251.185 391.589 251.615 391.329 251.995C391.069 252.365 390.699 252.655 390.219 252.865C389.749 253.075 389.189 253.18 388.539 253.18Z" fill="#444444"/>
<path d="M349.586 244.155C349.546 244.064 349.491 243.982 349.423 243.911L344.423 238.911C344.351 238.842 344.269 238.787 344.178 238.747C344.153 238.736 344.127 238.729 344.1 238.72C344.03 238.696 343.958 238.682 343.884 238.677C343.867 238.676 343.851 238.667 343.833 238.667H338C337.081 238.667 336.333 239.414 336.333 240.333V253.667C336.333 254.586 337.081 255.333 338 255.333H348C348.919 255.333 349.667 254.586 349.667 253.667V244.5C349.667 244.482 349.658 244.467 349.656 244.448C349.652 244.375 349.637 244.302 349.613 244.232C349.605 244.206 349.598 244.18 349.586 244.155ZM346.822 243.667H344.667V241.512L346.822 243.667ZM338 253.667V240.333H343V244.5C343 244.721 343.088 244.933 343.244 245.089C343.4 245.245 343.612 245.333 343.833 245.333H348L348.002 253.667H338Z" fill="black"/>
<path d="M339.667 247H346.333V248.667H339.667V247ZM339.667 250.333H346.333V252H339.667V250.333ZM339.667 243.667H341.333V245.333H339.667V243.667Z" fill="black"/>
<rect x="236" y="353" width="89" height="48" rx="9" fill="#FEFEFE" stroke="#EFEFEF" stroke-width="2"/>
<path d="M276.135 382L273.39 371.5H275.55L277.38 379.705L279.54 371.5H281.775L283.86 379.705L285.72 371.5H287.895L285.06 382H282.645L280.62 374.35L278.55 382H276.135ZM292.018 382.18C291.298 382.18 290.648 382.015 290.068 381.685C289.498 381.345 289.043 380.88 288.703 380.29C288.373 379.69 288.208 379.005 288.208 378.235C288.208 377.455 288.373 376.77 288.703 376.18C289.043 375.58 289.503 375.115 290.083 374.785C290.663 374.445 291.313 374.275 292.033 374.275C292.763 374.275 293.413 374.445 293.983 374.785C294.563 375.115 295.018 375.58 295.348 376.18C295.688 376.77 295.858 377.455 295.858 378.235C295.858 379.005 295.688 379.69 295.348 380.29C295.018 380.88 294.563 381.345 293.983 381.685C293.403 382.015 292.748 382.18 292.018 382.18ZM292.018 380.425C292.358 380.425 292.658 380.345 292.918 380.185C293.188 380.025 293.398 379.78 293.548 379.45C293.708 379.12 293.788 378.715 293.788 378.235C293.788 377.745 293.708 377.34 293.548 377.02C293.398 376.69 293.188 376.445 292.918 376.285C292.658 376.115 292.363 376.03 292.033 376.03C291.713 376.03 291.418 376.115 291.148 376.285C290.878 376.445 290.663 376.69 290.503 377.02C290.343 377.34 290.263 377.745 290.263 378.235C290.263 378.715 290.343 379.12 290.503 379.45C290.663 379.78 290.873 380.025 291.133 380.185C291.403 380.345 291.698 380.425 292.018 380.425ZM297.603 382V374.455H299.403L299.583 375.85C299.773 375.52 300.003 375.24 300.273 375.01C300.543 374.78 300.858 374.6 301.218 374.47C301.578 374.34 301.968 374.275 302.388 374.275V376.42H301.713C301.413 376.42 301.133 376.455 300.873 376.525C300.623 376.585 300.403 376.695 300.213 376.855C300.023 377.015 299.878 377.23 299.778 377.5C299.678 377.77 299.628 378.11 299.628 378.52V382H297.603ZM306.969 382.18C306.279 382.18 305.659 382.01 305.109 381.67C304.569 381.33 304.144 380.86 303.834 380.26C303.524 379.66 303.369 378.985 303.369 378.235C303.369 377.475 303.524 376.795 303.834 376.195C304.154 375.595 304.589 375.125 305.139 374.785C305.699 374.445 306.324 374.275 307.014 374.275C307.564 374.275 308.039 374.375 308.439 374.575C308.849 374.775 309.179 375.06 309.429 375.43V371.2H311.454V382H309.654L309.429 380.965C309.279 381.175 309.089 381.375 308.859 381.565C308.639 381.755 308.374 381.905 308.064 382.015C307.754 382.125 307.389 382.18 306.969 382.18ZM307.449 380.41C307.849 380.41 308.199 380.32 308.499 380.14C308.809 379.95 309.049 379.69 309.219 379.36C309.399 379.03 309.489 378.65 309.489 378.22C309.489 377.79 309.399 377.415 309.219 377.095C309.049 376.765 308.809 376.51 308.499 376.33C308.199 376.14 307.849 376.045 307.449 376.045C307.069 376.045 306.724 376.14 306.414 376.33C306.104 376.51 305.859 376.765 305.679 377.095C305.509 377.415 305.424 377.79 305.424 378.22C305.424 378.65 305.509 379.03 305.679 379.36C305.859 379.69 306.099 379.95 306.399 380.14C306.709 380.32 307.059 380.41 307.449 380.41Z" fill="#444444"/>
<rect x="472" y="275" width="115" height="48" rx="9" fill="#FEFEFE" stroke="#EFEFEF" stroke-width="2"/>
<path d="M514.735 303V299.265L511.21 292.5H513.385L515.71 297.345L518.02 292.5H520.165L516.655 299.265V303H514.735ZM523.587 303.18C522.867 303.18 522.217 303.015 521.637 302.685C521.067 302.355 520.612 301.9 520.272 301.32C519.942 300.73 519.777 300.05 519.777 299.28C519.777 298.51 519.947 297.835 520.287 297.255C520.627 296.665 521.082 296.205 521.652 295.875C522.232 295.545 522.882 295.38 523.602 295.38C524.312 295.38 524.952 295.545 525.522 295.875C526.102 296.205 526.557 296.665 526.887 297.255C527.227 297.835 527.397 298.51 527.397 299.28C527.397 300.05 527.227 300.73 526.887 301.32C526.557 301.9 526.102 302.355 525.522 302.685C524.942 303.015 524.297 303.18 523.587 303.18ZM523.587 301.515C524.087 301.515 524.522 301.33 524.892 300.96C525.262 300.58 525.447 300.02 525.447 299.28C525.447 298.54 525.262 297.985 524.892 297.615C524.522 297.235 524.092 297.045 523.602 297.045C523.092 297.045 522.652 297.235 522.282 297.615C521.922 297.985 521.742 298.54 521.742 299.28C521.742 300.02 521.922 300.58 522.282 300.96C522.652 301.33 523.087 301.515 523.587 301.515ZM531.904 303.18C530.974 303.18 530.254 302.89 529.744 302.31C529.244 301.73 528.994 300.88 528.994 299.76V295.56H530.899V299.58C530.899 300.22 531.029 300.71 531.289 301.05C531.549 301.39 531.959 301.56 532.519 301.56C533.049 301.56 533.484 301.37 533.824 300.99C534.174 300.61 534.349 300.08 534.349 299.4V295.56H536.269V303H534.574L534.424 301.74C534.194 302.18 533.859 302.53 533.419 302.79C532.989 303.05 532.484 303.18 531.904 303.18ZM541.555 303C540.775 303 540.15 302.81 539.68 302.43C539.21 302.05 538.975 301.375 538.975 300.405V297.165H537.7V295.56H538.975L539.2 293.565H540.895V295.56H542.905V297.165H540.895V300.42C540.895 300.78 540.97 301.03 541.12 301.17C541.28 301.3 541.55 301.365 541.93 301.365H542.86V303H541.555ZM547.343 303.18C546.413 303.18 545.693 302.89 545.183 302.31C544.683 301.73 544.433 300.88 544.433 299.76V295.56H546.338V299.58C546.338 300.22 546.468 300.71 546.728 301.05C546.988 301.39 547.398 301.56 547.958 301.56C548.488 301.56 548.923 301.37 549.263 300.99C549.613 300.61 549.788 300.08 549.788 299.4V295.56H551.708V303H550.013L549.863 301.74C549.633 302.18 549.298 302.53 548.858 302.79C548.428 303.05 547.923 303.18 547.343 303.18ZM558.089 303.18C557.529 303.18 557.039 303.075 556.619 302.865C556.199 302.655 555.859 302.36 555.599 301.98L555.389 303H553.679V292.2H555.599V296.625C555.839 296.295 556.154 296.005 556.544 295.755C556.944 295.505 557.459 295.38 558.089 295.38C558.789 295.38 559.414 295.55 559.964 295.89C560.514 296.23 560.949 296.695 561.269 297.285C561.589 297.875 561.749 298.545 561.749 299.295C561.749 300.045 561.589 300.715 561.269 301.305C560.949 301.885 560.514 302.345 559.964 302.685C559.414 303.015 558.789 303.18 558.089 303.18ZM557.684 301.5C558.294 301.5 558.799 301.295 559.199 300.885C559.599 300.475 559.799 299.945 559.799 299.295C559.799 298.645 559.599 298.11 559.199 297.69C558.799 297.27 558.294 297.06 557.684 297.06C557.064 297.06 556.554 297.27 556.154 297.69C555.764 298.1 555.569 298.63 555.569 299.28C555.569 299.93 555.764 300.465 556.154 300.885C556.554 301.295 557.064 301.5 557.684 301.5ZM567.079 303.18C566.329 303.18 565.664 303.02 565.084 302.7C564.504 302.38 564.049 301.93 563.719 301.35C563.389 300.77 563.224 300.1 563.224 299.34C563.224 298.57 563.384 297.885 563.704 297.285C564.034 296.685 564.484 296.22 565.054 295.89C565.634 295.55 566.314 295.38 567.094 295.38C567.824 295.38 568.469 295.54 569.029 295.86C569.589 296.18 570.024 296.62 570.334 297.18C570.654 297.73 570.814 298.345 570.814 299.025C570.814 299.135 570.809 299.25 570.799 299.37C570.799 299.49 570.794 299.615 570.784 299.745H565.129C565.169 300.325 565.369 300.78 565.729 301.11C566.099 301.44 566.544 301.605 567.064 301.605C567.454 301.605 567.779 301.52 568.039 301.35C568.309 301.17 568.509 300.94 568.639 300.66H570.589C570.449 301.13 570.214 301.56 569.884 301.95C569.564 302.33 569.164 302.63 568.684 302.85C568.214 303.07 567.679 303.18 567.079 303.18ZM567.094 296.94C566.624 296.94 566.209 297.075 565.849 297.345C565.489 297.605 565.259 298.005 565.159 298.545H568.864C568.834 298.055 568.654 297.665 568.324 297.375C567.994 297.085 567.584 296.94 567.094 296.94Z" fill="#444444"/>
<rect x="472" y="161" width="100" height="48" rx="9" fill="#FEFEFE" stroke="#EFEFEF" stroke-width="2"/>
<path d="M519.775 190.18C518.715 190.18 517.805 189.955 517.045 189.505C516.285 189.045 515.7 188.41 515.29 187.6C514.88 186.78 514.675 185.835 514.675 184.765C514.675 183.695 514.88 182.75 515.29 181.93C515.7 181.11 516.285 180.47 517.045 180.01C517.805 179.55 518.715 179.32 519.775 179.32C521.035 179.32 522.065 179.635 522.865 180.265C523.675 180.885 524.18 181.76 524.38 182.89H522.265C522.135 182.32 521.855 181.875 521.425 181.555C521.005 181.225 520.445 181.06 519.745 181.06C518.775 181.06 518.015 181.39 517.465 182.05C516.915 182.71 516.64 183.615 516.64 184.765C516.64 185.915 516.915 186.82 517.465 187.48C518.015 188.13 518.775 188.455 519.745 188.455C520.445 188.455 521.005 188.305 521.425 188.005C521.855 187.695 522.135 187.27 522.265 186.73H524.38C524.18 187.81 523.675 188.655 522.865 189.265C522.065 189.875 521.035 190.18 519.775 190.18ZM529.605 190.18C528.885 190.18 528.235 190.015 527.655 189.685C527.085 189.355 526.63 188.9 526.29 188.32C525.96 187.73 525.795 187.05 525.795 186.28C525.795 185.51 525.965 184.835 526.305 184.255C526.645 183.665 527.1 183.205 527.67 182.875C528.25 182.545 528.9 182.38 529.62 182.38C530.33 182.38 530.97 182.545 531.54 182.875C532.12 183.205 532.575 183.665 532.905 184.255C533.245 184.835 533.415 185.51 533.415 186.28C533.415 187.05 533.245 187.73 532.905 188.32C532.575 188.9 532.12 189.355 531.54 189.685C530.96 190.015 530.315 190.18 529.605 190.18ZM529.605 188.515C530.105 188.515 530.54 188.33 530.91 187.96C531.28 187.58 531.465 187.02 531.465 186.28C531.465 185.54 531.28 184.985 530.91 184.615C530.54 184.235 530.11 184.045 529.62 184.045C529.11 184.045 528.67 184.235 528.3 184.615C527.94 184.985 527.76 185.54 527.76 186.28C527.76 187.02 527.94 187.58 528.3 187.96C528.67 188.33 529.105 188.515 529.605 188.515ZM538.551 190.18C537.851 190.18 537.226 190.01 536.676 189.67C536.126 189.33 535.691 188.865 535.371 188.275C535.051 187.685 534.891 187.015 534.891 186.265C534.891 185.515 535.051 184.85 535.371 184.27C535.691 183.68 536.126 183.22 536.676 182.89C537.226 182.55 537.851 182.38 538.551 182.38C539.111 182.38 539.601 182.485 540.021 182.695C540.441 182.905 540.781 183.2 541.041 183.58V179.2H542.961V190H541.251L541.041 188.935C540.801 189.265 540.481 189.555 540.081 189.805C539.691 190.055 539.181 190.18 538.551 190.18ZM538.956 188.5C539.576 188.5 540.081 188.295 540.471 187.885C540.871 187.465 541.071 186.93 541.071 186.28C541.071 185.63 540.871 185.1 540.471 184.69C540.081 184.27 539.576 184.06 538.956 184.06C538.346 184.06 537.841 184.265 537.441 184.675C537.041 185.085 536.841 185.615 536.841 186.265C536.841 186.915 537.041 187.45 537.441 187.87C537.841 188.29 538.346 188.5 538.956 188.5ZM548.531 190.18C547.781 190.18 547.116 190.02 546.536 189.7C545.956 189.38 545.501 188.93 545.171 188.35C544.841 187.77 544.676 187.1 544.676 186.34C544.676 185.57 544.836 184.885 545.156 184.285C545.486 183.685 545.936 183.22 546.506 182.89C547.086 182.55 547.766 182.38 548.546 182.38C549.276 182.38 549.921 182.54 550.481 182.86C551.041 183.18 551.476 183.62 551.786 184.18C552.106 184.73 552.266 185.345 552.266 186.025C552.266 186.135 552.261 186.25 552.251 186.37C552.251 186.49 552.246 186.615 552.236 186.745H546.581C546.621 187.325 546.821 187.78 547.181 188.11C547.551 188.44 547.996 188.605 548.516 188.605C548.906 188.605 549.231 188.52 549.491 188.35C549.761 188.17 549.961 187.94 550.091 187.66H552.041C551.901 188.13 551.666 188.56 551.336 188.95C551.016 189.33 550.616 189.63 550.136 189.85C549.666 190.07 549.131 190.18 548.531 190.18ZM548.546 183.94C548.076 183.94 547.661 184.075 547.301 184.345C546.941 184.605 546.711 185.005 546.611 185.545H550.316C550.286 185.055 550.106 184.665 549.776 184.375C549.446 184.085 549.036 183.94 548.546 183.94Z" fill="#444444"/>
<rect x="120" y="161" width="130" height="48" rx="9" fill="#FEFEFE" stroke="#EFEFEF" stroke-width="2"/>
<path d="M166.15 189L163.375 178.5H165.43L167.32 186.855L169.54 178.5H171.655L173.815 186.855L175.705 178.5H177.775L174.925 189H172.645L170.56 181.215L168.415 189H166.15ZM181.945 189.18C181.195 189.18 180.53 189.02 179.95 188.7C179.37 188.38 178.915 187.93 178.585 187.35C178.255 186.77 178.09 186.1 178.09 185.34C178.09 184.57 178.25 183.885 178.57 183.285C178.9 182.685 179.35 182.22 179.92 181.89C180.5 181.55 181.18 181.38 181.96 181.38C182.69 181.38 183.335 181.54 183.895 181.86C184.455 182.18 184.89 182.62 185.2 183.18C185.52 183.73 185.68 184.345 185.68 185.025C185.68 185.135 185.675 185.25 185.665 185.37C185.665 185.49 185.66 185.615 185.65 185.745H179.995C180.035 186.325 180.235 186.78 180.595 187.11C180.965 187.44 181.41 187.605 181.93 187.605C182.32 187.605 182.645 187.52 182.905 187.35C183.175 187.17 183.375 186.94 183.505 186.66H185.455C185.315 187.13 185.08 187.56 184.75 187.95C184.43 188.33 184.03 188.63 183.55 188.85C183.08 189.07 182.545 189.18 181.945 189.18ZM181.96 182.94C181.49 182.94 181.075 183.075 180.715 183.345C180.355 183.605 180.125 184.005 180.025 184.545H183.73C183.7 184.055 183.52 183.665 183.19 183.375C182.86 183.085 182.45 182.94 181.96 182.94ZM191.705 189.18C191.145 189.18 190.655 189.075 190.235 188.865C189.815 188.655 189.475 188.36 189.215 187.98L189.005 189H187.295V178.2H189.215V182.625C189.455 182.295 189.77 182.005 190.16 181.755C190.56 181.505 191.075 181.38 191.705 181.38C192.405 181.38 193.03 181.55 193.58 181.89C194.13 182.23 194.565 182.695 194.885 183.285C195.205 183.875 195.365 184.545 195.365 185.295C195.365 186.045 195.205 186.715 194.885 187.305C194.565 187.885 194.13 188.345 193.58 188.685C193.03 189.015 192.405 189.18 191.705 189.18ZM191.3 187.5C191.91 187.5 192.415 187.295 192.815 186.885C193.215 186.475 193.415 185.945 193.415 185.295C193.415 184.645 193.215 184.11 192.815 183.69C192.415 183.27 191.91 183.06 191.3 183.06C190.68 183.06 190.17 183.27 189.77 183.69C189.38 184.1 189.185 184.63 189.185 185.28C189.185 185.93 189.38 186.465 189.77 186.885C190.17 187.295 190.68 187.5 191.3 187.5ZM200.7 189V178.5H202.62V187.5H207.27V189H200.7ZM209.951 180.405C209.601 180.405 209.311 180.3 209.081 180.09C208.861 179.88 208.751 179.615 208.751 179.295C208.751 178.975 208.861 178.715 209.081 178.515C209.311 178.305 209.601 178.2 209.951 178.2C210.301 178.2 210.586 178.305 210.806 178.515C211.036 178.715 211.151 178.975 211.151 179.295C211.151 179.615 211.036 179.88 210.806 180.09C210.586 180.3 210.301 180.405 209.951 180.405ZM208.991 189V181.56H210.911V189H208.991ZM212.915 189V181.56H214.61L214.76 182.82C214.99 182.38 215.32 182.03 215.75 181.77C216.19 181.51 216.705 181.38 217.295 181.38C218.215 181.38 218.93 181.67 219.44 182.25C219.95 182.83 220.205 183.68 220.205 184.8V189H218.285V184.98C218.285 184.34 218.155 183.85 217.895 183.51C217.635 183.17 217.23 183 216.68 183C216.14 183 215.695 183.19 215.345 183.57C215.005 183.95 214.835 184.48 214.835 185.16V189H212.915ZM222.041 189V178.2H223.961V184.575L226.601 181.56H228.881L225.836 184.95L229.376 189H226.976L223.961 185.265V189H222.041Z" fill="#444444"/>
<path d="M148.633 184.667C148.7 184.117 148.75 183.567 148.75 183C148.75 182.433 148.7 181.883 148.633 181.333H151.45C151.583 181.867 151.667 182.425 151.667 183C151.667 183.575 151.583 184.133 151.45 184.667M147.158 189.3C147.658 188.375 148.042 187.375 148.308 186.333H150.767C149.959 187.723 148.678 188.777 147.158 189.3ZM146.95 184.667H143.05C142.967 184.117 142.917 183.567 142.917 183C142.917 182.433 142.967 181.875 143.05 181.333H146.95C147.025 181.875 147.083 182.433 147.083 183C147.083 183.567 147.025 184.117 146.95 184.667ZM145 189.633C144.308 188.633 143.75 187.525 143.408 186.333H146.592C146.25 187.525 145.692 188.633 145 189.633ZM141.667 179.667H139.233C140.032 178.273 141.312 177.218 142.833 176.7C142.333 177.625 141.958 178.625 141.667 179.667ZM139.233 186.333H141.667C141.958 187.375 142.333 188.375 142.833 189.3C141.315 188.776 140.037 187.723 139.233 186.333ZM138.55 184.667C138.417 184.133 138.333 183.575 138.333 183C138.333 182.425 138.417 181.867 138.55 181.333H141.367C141.3 181.883 141.25 182.433 141.25 183C141.25 183.567 141.3 184.117 141.367 184.667M145 176.358C145.692 177.358 146.25 178.475 146.592 179.667H143.408C143.75 178.475 144.308 177.358 145 176.358ZM150.767 179.667H148.308C148.047 178.634 147.661 177.638 147.158 176.7C148.692 177.225 149.967 178.283 150.767 179.667ZM145 174.667C140.392 174.667 136.667 178.417 136.667 183C136.667 185.21 137.545 187.33 139.107 188.892C139.881 189.666 140.8 190.28 141.811 190.699C142.822 191.118 143.906 191.333 145 191.333C147.21 191.333 149.33 190.455 150.893 188.892C152.455 187.33 153.333 185.21 153.333 183C153.333 181.905 153.118 180.822 152.699 179.811C152.28 178.8 151.666 177.881 150.893 177.107C150.119 176.333 149.2 175.72 148.189 175.301C147.178 174.882 146.094 174.667 145 174.667Z" fill="#3B82F6"/>
<path d="M493.333 299.5L497.658 297L493.333 294.5V299.5ZM502.967 292.975C503.075 293.367 503.15 293.892 503.2 294.558C503.258 295.225 503.283 295.8 503.283 296.3L503.333 297C503.333 298.825 503.2 300.167 502.967 301.025C502.758 301.775 502.275 302.258 501.525 302.467C501.133 302.575 500.417 302.65 499.317 302.7C498.233 302.758 497.242 302.783 496.325 302.783L495 302.833C491.508 302.833 489.333 302.7 488.475 302.467C487.725 302.258 487.242 301.775 487.033 301.025C486.925 300.633 486.85 300.108 486.8 299.442C486.742 298.775 486.717 298.2 486.717 297.7L486.667 297C486.667 295.175 486.8 293.833 487.033 292.975C487.242 292.225 487.725 291.742 488.475 291.533C488.867 291.425 489.583 291.35 490.683 291.3C491.767 291.242 492.758 291.217 493.675 291.217L495 291.167C498.492 291.167 500.667 291.3 501.525 291.533C502.275 291.742 502.758 292.225 502.967 292.975Z" fill="#FF0000"/>
<rect x="396" y="355" width="90" height="48" rx="9" fill="#FEFEFE" stroke="#EFEFEF" stroke-width="2"/>
<path d="M436.035 383V372.5H442.935V374.135H438.06V376.88H442.485V378.455H438.06V381.365H442.935V383H436.035ZM444.03 383L446.745 379.22L444.03 375.455H446.22L448.035 378.035L449.85 375.455H452.025L449.31 379.22L452.025 383H449.85L448.035 380.405L446.22 383H444.03ZM456.569 383.18C455.809 383.18 455.134 383.01 454.544 382.67C453.954 382.33 453.494 381.865 453.164 381.275C452.834 380.685 452.669 380.01 452.669 379.25C452.669 378.47 452.834 377.785 453.164 377.195C453.494 376.595 453.954 376.125 454.544 375.785C455.134 375.445 455.809 375.275 456.569 375.275C457.539 375.275 458.349 375.53 458.999 376.04C459.659 376.54 460.079 377.235 460.259 378.125H458.129C458.039 377.775 457.849 377.505 457.559 377.315C457.279 377.115 456.944 377.015 456.554 377.015C456.204 377.015 455.889 377.105 455.609 377.285C455.339 377.455 455.124 377.705 454.964 378.035C454.804 378.365 454.724 378.765 454.724 379.235C454.724 379.575 454.769 379.885 454.859 380.165C454.959 380.435 455.089 380.67 455.249 380.87C455.409 381.06 455.599 381.205 455.819 381.305C456.049 381.405 456.294 381.455 456.554 381.455C456.814 381.455 457.049 381.41 457.259 381.32C457.479 381.23 457.664 381.105 457.814 380.945C457.964 380.775 458.069 380.57 458.129 380.33H460.259C460.089 381.2 459.669 381.895 458.999 382.415C458.339 382.925 457.529 383.18 456.569 383.18ZM465.636 383.18C464.876 383.18 464.201 383.02 463.611 382.7C463.031 382.37 462.576 381.915 462.246 381.335C461.926 380.745 461.766 380.065 461.766 379.295C461.766 378.515 461.926 377.825 462.246 377.225C462.566 376.615 463.016 376.14 463.596 375.8C464.186 375.45 464.866 375.275 465.636 375.275C466.386 375.275 467.041 375.44 467.601 375.77C468.161 376.09 468.596 376.535 468.906 377.105C469.226 377.665 469.386 378.3 469.386 379.01C469.386 379.11 469.381 379.22 469.371 379.34C469.371 379.46 469.361 379.59 469.341 379.73H463.206V378.485H467.331C467.301 378.005 467.126 377.625 466.806 377.345C466.496 377.055 466.106 376.91 465.636 376.91C465.296 376.91 464.981 376.99 464.691 377.15C464.401 377.31 464.171 377.55 464.001 377.87C463.841 378.18 463.761 378.58 463.761 379.07V379.505C463.761 379.915 463.836 380.275 463.986 380.585C464.146 380.885 464.366 381.12 464.646 381.29C464.926 381.45 465.251 381.53 465.621 381.53C465.991 381.53 466.296 381.45 466.536 381.29C466.786 381.13 466.976 380.92 467.106 380.66H469.161C469.021 381.14 468.786 381.57 468.456 381.95C468.126 382.33 467.721 382.63 467.241 382.85C466.761 383.07 466.226 383.18 465.636 383.18ZM471.029 383V372.2H473.054V383H471.029Z" fill="#444444"/>
<rect x="109" y="275" width="152" height="48" rx="9" fill="#FEFEFE" stroke="#EFEFEF" stroke-width="2"/>
<path d="M149.035 303V292.5H152.965C153.815 292.5 154.515 292.645 155.065 292.935C155.625 293.215 156.04 293.605 156.31 294.105C156.59 294.595 156.73 295.15 156.73 295.77C156.73 296.36 156.595 296.9 156.325 297.39C156.065 297.88 155.655 298.28 155.095 298.59C154.545 298.89 153.835 299.04 152.965 299.04H151.06V303H149.035ZM151.06 297.405H152.83C153.49 297.405 153.96 297.26 154.24 296.97C154.53 296.67 154.675 296.27 154.675 295.77C154.675 295.26 154.53 294.865 154.24 294.585C153.96 294.295 153.49 294.15 152.83 294.15H151.06V297.405ZM158.204 303V295.455H160.004L160.184 296.85C160.374 296.52 160.604 296.24 160.874 296.01C161.144 295.78 161.459 295.6 161.819 295.47C162.179 295.34 162.569 295.275 162.989 295.275V297.42H162.314C162.014 297.42 161.734 297.455 161.474 297.525C161.224 297.585 161.004 297.695 160.814 297.855C160.624 298.015 160.479 298.23 160.379 298.5C160.279 298.77 160.229 299.11 160.229 299.52V303H158.204ZM167.84 303.18C167.08 303.18 166.405 303.02 165.815 302.7C165.235 302.37 164.78 301.915 164.45 301.335C164.13 300.745 163.97 300.065 163.97 299.295C163.97 298.515 164.13 297.825 164.45 297.225C164.77 296.615 165.22 296.14 165.8 295.8C166.39 295.45 167.07 295.275 167.84 295.275C168.59 295.275 169.245 295.44 169.805 295.77C170.365 296.09 170.8 296.535 171.11 297.105C171.43 297.665 171.59 298.3 171.59 299.01C171.59 299.11 171.585 299.22 171.575 299.34C171.575 299.46 171.565 299.59 171.545 299.73H165.41V298.485H169.535C169.505 298.005 169.33 297.625 169.01 297.345C168.7 297.055 168.31 296.91 167.84 296.91C167.5 296.91 167.185 296.99 166.895 297.15C166.605 297.31 166.375 297.55 166.205 297.87C166.045 298.18 165.965 298.58 165.965 299.07V299.505C165.965 299.915 166.04 300.275 166.19 300.585C166.35 300.885 166.57 301.12 166.85 301.29C167.13 301.45 167.455 301.53 167.825 301.53C168.195 301.53 168.5 301.45 168.74 301.29C168.99 301.13 169.18 300.92 169.31 300.66H171.365C171.225 301.14 170.99 301.57 170.66 301.95C170.33 302.33 169.925 302.63 169.445 302.85C168.965 303.07 168.43 303.18 167.84 303.18ZM176.323 303.18C175.633 303.18 175.033 303.07 174.523 302.85C174.013 302.63 173.613 302.33 173.323 301.95C173.033 301.56 172.868 301.115 172.828 300.615H174.838C174.888 300.805 174.973 300.98 175.093 301.14C175.213 301.29 175.373 301.41 175.573 301.5C175.773 301.59 176.013 301.635 176.293 301.635C176.563 301.635 176.783 301.6 176.953 301.53C177.123 301.45 177.248 301.345 177.328 301.215C177.418 301.085 177.463 300.95 177.463 300.81C177.463 300.6 177.403 300.44 177.283 300.33C177.163 300.22 176.983 300.13 176.743 300.06C176.513 299.98 176.238 299.91 175.918 299.85C175.558 299.77 175.208 299.68 174.868 299.58C174.528 299.48 174.218 299.35 173.938 299.19C173.668 299.03 173.453 298.825 173.293 298.575C173.133 298.315 173.053 298.005 173.053 297.645C173.053 297.195 173.173 296.795 173.413 296.445C173.653 296.085 174.003 295.8 174.463 295.59C174.923 295.38 175.473 295.275 176.113 295.275C177.023 295.275 177.743 295.48 178.273 295.89C178.813 296.3 179.128 296.865 179.218 297.585H177.313C177.263 297.345 177.133 297.16 176.923 297.03C176.713 296.9 176.443 296.835 176.113 296.835C175.753 296.835 175.478 296.9 175.288 297.03C175.108 297.16 175.018 297.325 175.018 297.525C175.018 297.665 175.078 297.79 175.198 297.9C175.318 298.01 175.493 298.105 175.723 298.185C175.953 298.265 176.233 298.34 176.563 298.41C177.143 298.53 177.648 298.665 178.078 298.815C178.518 298.965 178.863 299.185 179.113 299.475C179.373 299.755 179.498 300.165 179.488 300.705C179.498 301.185 179.373 301.615 179.113 301.995C178.853 302.365 178.483 302.655 178.003 302.865C177.533 303.075 176.973 303.18 176.323 303.18ZM184.832 303.18C184.072 303.18 183.397 303.02 182.807 302.7C182.227 302.37 181.772 301.915 181.442 301.335C181.122 300.745 180.962 300.065 180.962 299.295C180.962 298.515 181.122 297.825 181.442 297.225C181.762 296.615 182.212 296.14 182.792 295.8C183.382 295.45 184.062 295.275 184.832 295.275C185.582 295.275 186.237 295.44 186.797 295.77C187.357 296.09 187.792 296.535 188.102 297.105C188.422 297.665 188.582 298.3 188.582 299.01C188.582 299.11 188.577 299.22 188.567 299.34C188.567 299.46 188.557 299.59 188.537 299.73H182.402V298.485H186.527C186.497 298.005 186.322 297.625 186.002 297.345C185.692 297.055 185.302 296.91 184.832 296.91C184.492 296.91 184.177 296.99 183.887 297.15C183.597 297.31 183.367 297.55 183.197 297.87C183.037 298.18 182.957 298.58 182.957 299.07V299.505C182.957 299.915 183.032 300.275 183.182 300.585C183.342 300.885 183.562 301.12 183.842 301.29C184.122 301.45 184.447 301.53 184.817 301.53C185.187 301.53 185.492 301.45 185.732 301.29C185.982 301.13 186.172 300.92 186.302 300.66H188.357C188.217 301.14 187.982 301.57 187.652 301.95C187.322 302.33 186.917 302.63 186.437 302.85C185.957 303.07 185.422 303.18 184.832 303.18ZM190.225 303V295.455H192.01L192.16 296.685C192.39 296.265 192.715 295.925 193.135 295.665C193.565 295.405 194.075 295.275 194.665 295.275C195.295 295.275 195.825 295.405 196.255 295.665C196.685 295.925 197.01 296.305 197.23 296.805C197.46 297.305 197.575 297.92 197.575 298.65V303H195.565V298.845C195.565 298.245 195.435 297.785 195.175 297.465C194.925 297.145 194.535 296.985 194.005 296.985C193.665 296.985 193.36 297.065 193.09 297.225C192.83 297.385 192.625 297.615 192.475 297.915C192.325 298.205 192.25 298.565 192.25 298.995V303H190.225ZM202.874 303C202.344 303 201.879 302.92 201.479 302.76C201.089 302.59 200.784 302.315 200.564 301.935C200.344 301.545 200.234 301.015 200.234 300.345V297.15H198.944V295.455H200.234L200.459 293.4H202.259V295.455H204.254V297.15H202.259V300.375C202.259 300.715 202.334 300.95 202.484 301.08C202.634 301.21 202.889 301.275 203.249 301.275H204.224V303H202.874ZM208.493 303.18C207.863 303.18 207.343 303.08 206.933 302.88C206.523 302.67 206.218 302.395 206.018 302.055C205.818 301.705 205.718 301.32 205.718 300.9C205.718 300.44 205.838 300.035 206.078 299.685C206.318 299.335 206.673 299.065 207.143 298.875C207.623 298.675 208.223 298.575 208.943 298.575H210.818C210.818 298.195 210.768 297.885 210.668 297.645C210.568 297.405 210.413 297.225 210.203 297.105C209.993 296.985 209.713 296.925 209.363 296.925C208.983 296.925 208.658 297.01 208.388 297.18C208.128 297.34 207.968 297.59 207.908 297.93H205.943C205.993 297.39 206.168 296.925 206.468 296.535C206.778 296.135 207.183 295.825 207.683 295.605C208.183 295.385 208.748 295.275 209.378 295.275C210.088 295.275 210.703 295.395 211.223 295.635C211.743 295.875 212.143 296.22 212.423 296.67C212.703 297.12 212.843 297.67 212.843 298.32V303H211.133L210.908 301.845C210.798 302.045 210.668 302.225 210.518 302.385C210.368 302.545 210.193 302.685 209.993 302.805C209.793 302.925 209.568 303.015 209.318 303.075C209.068 303.145 208.793 303.18 208.493 303.18ZM208.973 301.62C209.233 301.62 209.463 301.575 209.663 301.485C209.873 301.385 210.053 301.255 210.203 301.095C210.353 300.925 210.468 300.735 210.548 300.525C210.638 300.305 210.698 300.07 210.728 299.82V299.805H209.183C208.873 299.805 208.618 299.845 208.418 299.925C208.228 300.005 208.088 300.115 207.998 300.255C207.908 300.385 207.863 300.545 207.863 300.735C207.863 300.925 207.908 301.085 207.998 301.215C208.088 301.345 208.218 301.445 208.388 301.515C208.558 301.585 208.753 301.62 208.973 301.62ZM218.049 303C217.519 303 217.054 302.92 216.654 302.76C216.264 302.59 215.959 302.315 215.739 301.935C215.519 301.545 215.409 301.015 215.409 300.345V297.15H214.119V295.455H215.409L215.634 293.4H217.434V295.455H219.429V297.15H217.434V300.375C217.434 300.715 217.509 300.95 217.659 301.08C217.809 301.21 218.064 301.275 218.424 301.275H219.399V303H218.049ZM221.164 303V295.455H223.189V303H221.164ZM222.184 294.42C221.814 294.42 221.514 294.31 221.284 294.09C221.054 293.87 220.939 293.595 220.939 293.265C220.939 292.935 221.054 292.665 221.284 292.455C221.514 292.235 221.814 292.125 222.184 292.125C222.554 292.125 222.854 292.235 223.084 292.455C223.324 292.665 223.444 292.935 223.444 293.265C223.444 293.595 223.324 293.87 223.084 294.09C222.854 294.31 222.554 294.42 222.184 294.42ZM228.79 303.18C228.07 303.18 227.42 303.015 226.84 302.685C226.27 302.345 225.815 301.88 225.475 301.29C225.145 300.69 224.98 300.005 224.98 299.235C224.98 298.455 225.145 297.77 225.475 297.18C225.815 296.58 226.275 296.115 226.855 295.785C227.435 295.445 228.085 295.275 228.805 295.275C229.535 295.275 230.185 295.445 230.755 295.785C231.335 296.115 231.79 296.58 232.12 297.18C232.46 297.77 232.63 298.455 232.63 299.235C232.63 300.005 232.46 300.69 232.12 301.29C231.79 301.88 231.335 302.345 230.755 302.685C230.175 303.015 229.52 303.18 228.79 303.18ZM228.79 301.425C229.13 301.425 229.43 301.345 229.69 301.185C229.96 301.025 230.17 300.78 230.32 300.45C230.48 300.12 230.56 299.715 230.56 299.235C230.56 298.745 230.48 298.34 230.32 298.02C230.17 297.69 229.96 297.445 229.69 297.285C229.43 297.115 229.135 297.03 228.805 297.03C228.485 297.03 228.19 297.115 227.92 297.285C227.65 297.445 227.435 297.69 227.275 298.02C227.115 298.34 227.035 298.745 227.035 299.235C227.035 299.715 227.115 300.12 227.275 300.45C227.435 300.78 227.645 301.025 227.905 301.185C228.175 301.345 228.47 301.425 228.79 301.425ZM234.376 303V295.455H236.161L236.311 296.685C236.541 296.265 236.866 295.925 237.286 295.665C237.716 295.405 238.226 295.275 238.816 295.275C239.446 295.275 239.976 295.405 240.406 295.665C240.836 295.925 241.161 296.305 241.381 296.805C241.611 297.305 241.726 297.92 241.726 298.65V303H239.716V298.845C239.716 298.245 239.586 297.785 239.326 297.465C239.076 297.145 238.686 296.985 238.156 296.985C237.816 296.985 237.511 297.065 237.241 297.225C236.981 297.385 236.776 297.615 236.626 297.915C236.476 298.205 236.401 298.565 236.401 298.995V303H234.376Z" fill="#444444"/>
<path d="M418.238 378.594L411.32 377.375V386.381C411.32 386.479 411.339 386.575 411.377 386.666C411.414 386.756 411.469 386.838 411.538 386.908C411.607 386.977 411.69 387.032 411.78 387.069C411.871 387.106 411.968 387.125 412.066 387.125H424.003C424.101 387.125 424.198 387.106 424.289 387.069C424.379 387.032 424.462 386.977 424.531 386.908C424.601 386.839 424.656 386.757 424.693 386.666C424.731 386.576 424.75 386.479 424.75 386.381V383.063L418.238 378.594Z" fill="#185C37"/>
<path d="M418.238 370.875H412.066C411.968 370.875 411.871 370.894 411.78 370.931C411.69 370.968 411.607 371.023 411.538 371.092C411.469 371.162 411.414 371.244 411.377 371.334C411.339 371.425 411.32 371.521 411.32 371.619V374.938L418.238 379L421.901 380.219L424.75 379V374.938L418.238 370.875Z" fill="#21A366"/>
<path d="M411.32 374.938H418.238V379H411.32V374.938Z" fill="#107C41"/>
<path opacity="0.1" d="M416.271 374.125H411.32V384.281H416.271C416.468 384.28 416.657 384.202 416.797 384.062C416.937 383.923 417.016 383.734 417.017 383.537V374.869C417.016 374.672 416.937 374.483 416.797 374.344C416.657 374.205 416.468 374.126 416.271 374.125Z" fill="black"/>
<path opacity="0.2" d="M415.864 374.531H411.32V384.688H415.864C416.062 384.687 416.251 384.608 416.39 384.469C416.53 384.329 416.609 384.14 416.611 383.943V375.276C416.609 375.078 416.53 374.89 416.39 374.75C416.251 374.611 416.062 374.532 415.864 374.531Z" fill="black"/>
<path opacity="0.2" d="M415.864 374.531H411.32V383.875H415.864C416.062 383.874 416.251 383.795 416.39 383.656C416.53 383.517 416.609 383.328 416.611 383.131V375.276C416.609 375.078 416.53 374.89 416.39 374.75C416.251 374.611 416.062 374.532 415.864 374.531Z" fill="black"/>
<path opacity="0.2" d="M415.457 374.531H411.32V383.875H415.457C415.655 383.874 415.844 383.795 415.983 383.656C416.123 383.517 416.202 383.328 416.204 383.131V375.276C416.202 375.078 416.123 374.89 415.983 374.75C415.844 374.611 415.655 374.532 415.457 374.531Z" fill="black"/>
<path d="M407.996 374.531H415.458C415.655 374.531 415.845 374.609 415.985 374.749C416.125 374.889 416.203 375.078 416.204 375.276V382.724C416.203 382.922 416.125 383.111 415.985 383.251C415.845 383.391 415.655 383.469 415.458 383.469H407.996C407.898 383.469 407.801 383.45 407.711 383.413C407.62 383.376 407.538 383.321 407.469 383.252C407.399 383.182 407.344 383.1 407.307 383.01C407.269 382.919 407.25 382.822 407.25 382.724V375.276C407.25 375.178 407.269 375.081 407.307 374.99C407.344 374.9 407.399 374.818 407.469 374.748C407.538 374.679 407.62 374.624 407.711 374.587C407.801 374.55 407.898 374.531 407.996 374.531Z" fill="url(#paint0_linear_344_6)"/>
<path d="M409.562 381.421L411.132 378.993L409.694 376.58H410.849L411.633 378.125C411.706 378.271 411.758 378.38 411.782 378.453H411.792C411.844 378.336 411.898 378.222 411.955 378.111L412.794 376.582H413.856L412.382 378.982L413.894 381.423H412.763L411.857 379.728C411.815 379.655 411.779 379.579 411.75 379.5H411.735C411.709 379.577 411.673 379.651 411.63 379.72L410.697 381.421H409.562Z" fill="white"/>
<path d="M424.004 370.875H418.238V374.938H424.75V371.619C424.75 371.521 424.731 371.424 424.693 371.334C424.656 371.244 424.601 371.161 424.532 371.092C424.462 371.023 424.38 370.968 424.289 370.931C424.199 370.894 424.102 370.875 424.004 370.875Z" fill="#33C481"/>
<path d="M418.238 379H424.75V383.062H418.238V379Z" fill="#107C41"/>
<path d="M135.125 299.833C135.125 299.668 135.059 299.509 134.942 299.392C134.825 299.274 134.666 299.208 134.5 299.208H129.5C129.334 299.208 129.175 299.274 129.058 299.392C128.941 299.509 128.875 299.668 128.875 299.833C128.875 299.999 128.941 300.158 129.058 300.275C129.175 300.393 129.334 300.458 129.5 300.458H134.5C134.666 300.458 134.825 300.393 134.942 300.275C135.059 300.158 135.125 299.999 135.125 299.833ZM135.125 303.167C135.125 303.001 135.059 302.842 134.942 302.725C134.825 302.608 134.666 302.542 134.5 302.542H129.5C129.334 302.542 129.175 302.608 129.058 302.725C128.941 302.842 128.875 303.001 128.875 303.167C128.875 303.333 128.941 303.492 129.058 303.609C129.175 303.726 129.334 303.792 129.5 303.792H134.5C134.666 303.792 134.825 303.726 134.942 303.609C135.059 303.492 135.125 303.333 135.125 303.167Z" fill="#F97316"/>
<path fill-rule="evenodd" clip-rule="evenodd" d="M127.833 290.875C127.226 290.875 126.643 291.116 126.213 291.546C125.783 291.976 125.542 292.559 125.542 293.167V304.833C125.542 305.441 125.783 306.024 126.213 306.454C126.643 306.884 127.226 307.125 127.833 307.125H136.167C136.774 307.125 137.357 306.884 137.787 306.454C138.217 306.024 138.458 305.441 138.458 304.833V295.64C138.458 295.322 138.355 295.014 138.163 294.761L135.665 291.454C135.529 291.274 135.353 291.128 135.151 291.028C134.95 290.927 134.727 290.875 134.502 290.875H127.833ZM126.792 293.167C126.792 292.592 127.258 292.125 127.833 292.125H133.875V295.789C133.875 296.134 134.155 296.414 134.5 296.414H137.208V304.833C137.208 305.408 136.742 305.875 136.167 305.875H127.833C127.258 305.875 126.792 305.408 126.792 304.833V293.167Z" fill="#F97316"/>
<path d="M497.18 177.019C497.312 177.06 497.435 177.128 497.543 177.22C497.651 177.312 497.741 177.427 497.809 177.557C497.876 177.688 497.919 177.831 497.935 177.98C497.952 178.128 497.941 178.279 497.904 178.423L494.819 190.398C494.744 190.688 494.566 190.935 494.325 191.083C494.083 191.23 493.798 191.268 493.531 191.186C493.264 191.105 493.038 190.911 492.902 190.648C492.766 190.385 492.732 190.074 492.807 189.783L495.892 177.807C495.929 177.663 495.992 177.528 496.077 177.411C496.162 177.293 496.267 177.195 496.386 177.122C496.506 177.049 496.638 177.002 496.774 176.984C496.91 176.966 497.048 176.978 497.18 177.018L497.18 177.019ZM492.264 180.08C492.46 180.293 492.569 180.583 492.569 180.884C492.569 181.186 492.46 181.475 492.264 181.688L490.05 184.103L492.265 186.516C492.461 186.73 492.571 187.019 492.571 187.321C492.571 187.623 492.461 187.912 492.265 188.126C492.069 188.339 491.803 188.459 491.526 188.459C491.249 188.459 490.984 188.339 490.788 188.125L487.834 184.907C487.638 184.693 487.528 184.404 487.528 184.103C487.528 183.801 487.638 183.512 487.834 183.298L490.787 180.08C490.884 179.974 490.999 179.89 491.126 179.833C491.253 179.776 491.389 179.746 491.526 179.746C491.663 179.746 491.799 179.776 491.926 179.833C492.052 179.89 492.167 179.974 492.264 180.08ZM498.447 181.688C498.344 181.584 498.262 181.458 498.205 181.319C498.148 181.179 498.117 181.029 498.115 180.876C498.112 180.723 498.138 180.571 498.19 180.43C498.243 180.288 498.321 180.159 498.42 180.051C498.52 179.943 498.638 179.858 498.768 179.801C498.898 179.743 499.037 179.715 499.177 179.718C499.318 179.721 499.456 179.754 499.584 179.816C499.712 179.879 499.827 179.968 499.923 180.08L502.877 183.298C503.073 183.511 503.183 183.8 503.183 184.102C503.183 184.404 503.073 184.693 502.877 184.907L499.924 188.125C499.827 188.231 499.712 188.315 499.585 188.372C499.458 188.429 499.322 188.459 499.185 188.459C499.048 188.459 498.912 188.429 498.785 188.372C498.659 188.315 498.544 188.231 498.447 188.126C498.35 188.02 498.273 187.894 498.22 187.756C498.168 187.618 498.14 187.47 498.14 187.321C498.14 187.172 498.167 187.024 498.22 186.885C498.272 186.747 498.349 186.622 498.446 186.516L500.662 184.103L498.447 181.688Z" fill="#075985"/>
<path d="M264.004 368.875H252.066C251.968 368.875 251.871 368.894 251.78 368.931C251.69 368.968 251.607 369.023 251.538 369.092C251.469 369.162 251.414 369.244 251.377 369.334C251.339 369.425 251.32 369.521 251.32 369.619V372.938L258.238 374.969L264.75 372.938V369.619C264.75 369.521 264.731 369.424 264.693 369.334C264.656 369.244 264.601 369.161 264.531 369.092C264.462 369.023 264.38 368.968 264.289 368.931C264.199 368.894 264.102 368.875 264.004 368.875Z" fill="#41A5EE"/>
<path d="M264.75 372.938H251.32V377L258.238 378.219L264.75 377V372.938Z" fill="#2B7CD3"/>
<path d="M251.32 377V381.062L257.831 381.875L264.75 381.062V377H251.32Z" fill="#185ABD"/>
<path d="M252.066 385.125H264.003C264.101 385.125 264.198 385.106 264.289 385.069C264.379 385.032 264.462 384.977 264.531 384.908C264.601 384.839 264.656 384.757 264.693 384.666C264.731 384.576 264.75 384.479 264.75 384.381V381.062H251.32V384.381C251.32 384.479 251.339 384.575 251.377 384.666C251.414 384.756 251.469 384.838 251.538 384.908C251.607 384.977 251.69 385.032 251.78 385.069C251.871 385.106 251.968 385.125 252.066 385.125Z" fill="#103F91"/>
<path opacity="0.1" d="M256.271 372.125H251.32V382.281H256.271C256.468 382.28 256.657 382.202 256.797 382.062C256.937 381.923 257.016 381.734 257.017 381.537V372.869C257.016 372.672 256.937 372.483 256.797 372.344C256.657 372.205 256.468 372.126 256.271 372.125Z" fill="black"/>
<path opacity="0.2" d="M255.864 372.531H251.32V382.688H255.864C256.062 382.687 256.251 382.608 256.39 382.469C256.53 382.329 256.609 382.14 256.611 381.943V373.276C256.609 373.078 256.53 372.89 256.39 372.75C256.251 372.611 256.062 372.532 255.864 372.531Z" fill="black"/>
<path opacity="0.2" d="M255.864 372.531H251.32V381.875H255.864C256.062 381.874 256.251 381.795 256.39 381.656C256.53 381.517 256.609 381.328 256.611 381.131V373.276C256.609 373.078 256.53 372.89 256.39 372.75C256.251 372.611 256.062 372.532 255.864 372.531Z" fill="black"/>
<path opacity="0.2" d="M255.457 372.531H251.32V381.875H255.457C255.655 381.874 255.844 381.795 255.983 381.656C256.123 381.517 256.202 381.328 256.204 381.131V373.276C256.202 373.078 256.123 372.89 255.983 372.75C255.844 372.611 255.655 372.532 255.457 372.531Z" fill="black"/>
<path d="M247.996 372.531H255.458C255.655 372.531 255.845 372.609 255.985 372.749C256.125 372.889 256.203 373.078 256.204 373.276V380.724C256.203 380.922 256.125 381.111 255.985 381.251C255.845 381.391 255.655 381.469 255.458 381.469H247.996C247.898 381.469 247.801 381.45 247.711 381.413C247.62 381.376 247.538 381.321 247.469 381.252C247.399 381.182 247.344 381.1 247.307 381.01C247.269 380.919 247.25 380.822 247.25 380.724V373.276C247.25 373.178 247.269 373.081 247.307 372.99C247.344 372.9 247.399 372.818 247.469 372.748C247.538 372.679 247.62 372.624 247.711 372.587C247.801 372.55 247.898 372.531 247.996 372.531Z" fill="url(#paint1_linear_344_6)"/>
<path d="M250.313 378.243C250.327 378.358 250.337 378.458 250.341 378.543H250.359C250.365 378.462 250.379 378.364 250.399 378.25C250.431 378.078 250.438 378.038 250.455 377.959L251.239 374.58H252.254L253.067 377.908C253.114 378.114 253.148 378.323 253.168 378.533H253.182C253.197 378.329 253.226 378.125 253.266 377.924L253.916 374.575H254.839L253.699 379.418H252.619L251.846 376.214C251.824 376.121 251.798 376.001 251.77 375.853C251.742 375.704 251.724 375.596 251.718 375.528H251.704C251.696 375.606 251.678 375.723 251.652 375.878C251.626 376.033 251.605 376.148 251.589 376.223L250.863 379.42H249.765L248.619 374.58H249.556L250.263 377.966C250.284 378.057 250.3 378.15 250.313 378.243Z" fill="white"/>
<rect x="323" y="95" width="84" height="48" rx="9" fill="#FEFEFE" stroke="#EFEFEF" stroke-width="2"/>
<path d="M361.035 124V113.5H364.965C365.815 113.5 366.515 113.645 367.065 113.935C367.625 114.215 368.04 114.605 368.31 115.105C368.59 115.595 368.73 116.15 368.73 116.77C368.73 117.36 368.595 117.9 368.325 118.39C368.065 118.88 367.655 119.28 367.095 119.59C366.545 119.89 365.835 120.04 364.965 120.04H363.06V124H361.035ZM363.06 118.405H364.83C365.49 118.405 365.96 118.26 366.24 117.97C366.53 117.67 366.675 117.27 366.675 116.77C366.675 116.26 366.53 115.865 366.24 115.585C365.96 115.295 365.49 115.15 364.83 115.15H363.06V118.405ZM370.249 124V113.5H373.774C374.994 113.5 375.999 113.72 376.789 114.16C377.589 114.59 378.179 115.2 378.559 115.99C378.949 116.77 379.144 117.69 379.144 118.75C379.144 119.81 378.949 120.735 378.559 121.525C378.179 122.305 377.589 122.915 376.789 123.355C375.999 123.785 374.994 124 373.774 124H370.249ZM372.274 122.26H373.669C374.529 122.26 375.204 122.12 375.694 121.84C376.194 121.56 376.549 121.16 376.759 120.64C376.969 120.11 377.074 119.48 377.074 118.75C377.074 118.01 376.969 117.38 376.759 116.86C376.549 116.33 376.194 115.925 375.694 115.645C375.204 115.365 374.529 115.225 373.669 115.225H372.274V122.26ZM380.869 124V113.5H387.694V115.135H382.894V117.94H386.749V119.53H382.894V124H380.869Z" fill="#444444"/>
<path d="M346.062 110.295L349.54 113.92V127.705H336.549V127.75H349.584V113.966L346.062 110.295Z" fill="#909090"/>
<path d="M346.019 110.25H336.505V127.705H349.54V113.921L346.019 110.25Z" fill="#F4F4F4"/>
<path d="M336.409 111.188H332.416V115.454H344.978V111.188H336.409Z" fill="#7A7B7C"/>
<path d="M345.045 115.382H332.497V111.112H345.045V115.382Z" fill="#DD2025"/>
<path d="M336.657 111.834H335.841V114.834H336.483V113.822L336.625 113.83C336.763 113.828 336.899 113.803 337.029 113.757C337.143 113.718 337.248 113.656 337.337 113.575C337.429 113.498 337.501 113.401 337.547 113.291C337.61 113.109 337.633 112.915 337.612 112.724C337.609 112.587 337.585 112.451 337.541 112.321C337.502 112.227 337.443 112.143 337.369 112.073C337.295 112.003 337.208 111.949 337.112 111.915C337.029 111.884 336.943 111.863 336.856 111.85C336.79 111.839 336.724 111.834 336.657 111.834M336.539 113.267H336.483V112.342H336.604C336.657 112.339 336.71 112.347 336.76 112.366C336.81 112.386 336.854 112.416 336.891 112.456C336.966 112.556 337.006 112.679 337.005 112.804C337.005 112.958 337.005 113.097 336.866 113.196C336.766 113.251 336.652 113.276 336.539 113.267ZM338.833 111.826C338.764 111.826 338.696 111.831 338.649 111.832L338.5 111.836H338.012V114.836H338.586C338.805 114.842 339.024 114.805 339.229 114.727C339.394 114.662 339.54 114.556 339.654 114.42C339.765 114.283 339.845 114.123 339.887 113.952C339.936 113.758 339.96 113.559 339.958 113.359C339.97 113.123 339.952 112.886 339.904 112.654C339.857 112.484 339.772 112.327 339.654 112.196C339.561 112.09 339.447 112.005 339.319 111.946C339.21 111.895 339.095 111.858 338.976 111.835C338.929 111.827 338.881 111.824 338.834 111.824M338.72 114.285H338.657V112.37H338.666C338.794 112.355 338.925 112.378 339.041 112.437C339.125 112.504 339.194 112.59 339.243 112.687C339.296 112.789 339.326 112.901 339.332 113.016C339.337 113.153 339.332 113.266 339.332 113.359C339.334 113.466 339.327 113.573 339.311 113.679C339.292 113.788 339.256 113.893 339.206 113.992C339.149 114.084 339.071 114.161 338.979 114.217C338.902 114.267 338.81 114.29 338.719 114.283M341.894 111.836H340.375V114.836H341.017V113.646H341.83V113.089H341.017V112.394H341.892V111.836" fill="#464648"/>
<path d="M344.613 121.659C344.613 121.659 346.606 121.298 346.606 121.979C346.606 122.659 345.371 122.383 344.613 121.659ZM343.14 121.711C342.823 121.781 342.515 121.884 342.219 122.017L342.469 121.454C342.719 120.892 342.979 120.125 342.979 120.125C343.276 120.628 343.624 121.099 344.015 121.533C343.72 121.576 343.428 121.637 343.14 121.713V121.711ZM342.351 117.649C342.351 117.056 342.543 116.894 342.693 116.894C342.842 116.894 343.01 116.966 343.016 117.481C342.967 117.999 342.859 118.509 342.693 119.002C342.464 118.588 342.347 118.123 342.351 117.651L342.351 117.649ZM339.446 124.221C338.834 123.856 340.728 122.73 341.071 122.694C341.069 122.694 340.086 124.604 339.446 124.221ZM347.188 122.059C347.181 121.997 347.125 121.305 345.894 121.334C345.381 121.325 344.868 121.362 344.361 121.443C343.869 120.948 343.446 120.39 343.103 119.783C343.319 119.158 343.45 118.506 343.493 117.846C343.474 117.096 343.295 116.666 342.72 116.672C342.145 116.678 342.061 117.181 342.137 117.93C342.211 118.433 342.351 118.925 342.553 119.391C342.553 119.391 342.287 120.218 341.936 121.041C341.584 121.863 341.344 122.294 341.344 122.294C340.734 122.493 340.159 122.788 339.641 123.169C339.126 123.649 338.917 124.017 339.188 124.385C339.422 124.703 340.24 124.774 340.971 123.816C341.359 123.321 341.714 122.801 342.034 122.259C342.034 122.259 343.149 121.953 343.496 121.869C343.843 121.786 344.262 121.719 344.262 121.719C344.262 121.719 345.28 122.744 346.262 122.708C347.244 122.671 347.196 122.121 347.19 122.061" fill="#DD2025"/>
<path d="M345.971 110.298V113.969H349.492L345.971 110.298Z" fill="#909090"/>
<path d="M346.019 110.25V113.921H349.54L346.019 110.25Z" fill="#F4F4F4"/>
<path d="M336.609 111.786H335.792V114.786H336.437V113.775L336.58 113.783C336.718 113.781 336.855 113.756 336.984 113.71C337.098 113.671 337.203 113.609 337.292 113.528C337.383 113.451 337.454 113.354 337.5 113.244C337.563 113.062 337.586 112.868 337.566 112.676C337.562 112.539 337.538 112.404 337.494 112.274C337.455 112.18 337.396 112.095 337.323 112.025C337.249 111.956 337.161 111.902 337.065 111.868C336.982 111.837 336.896 111.815 336.808 111.802C336.742 111.791 336.676 111.786 336.609 111.786M336.491 113.22H336.435V112.295H336.556C336.609 112.291 336.663 112.299 336.713 112.318C336.762 112.338 336.807 112.369 336.843 112.408C336.918 112.508 336.958 112.631 336.957 112.756C336.957 112.91 336.957 113.05 336.819 113.148C336.719 113.203 336.605 113.227 336.491 113.219M338.785 111.778C338.716 111.778 338.648 111.783 338.601 111.785L338.454 111.788H337.966V114.788H338.54C338.759 114.794 338.977 114.757 339.182 114.679C339.348 114.614 339.494 114.508 339.607 114.372C339.719 114.235 339.799 114.075 339.841 113.904C339.89 113.71 339.914 113.511 339.912 113.311C339.924 113.075 339.906 112.838 339.857 112.606C339.811 112.436 339.726 112.279 339.607 112.148C339.515 112.042 339.401 111.957 339.273 111.898C339.164 111.848 339.048 111.81 338.93 111.787C338.883 111.779 338.835 111.776 338.787 111.776M338.674 114.237H338.611V112.322H338.619C338.748 112.307 338.879 112.33 338.994 112.389C339.079 112.457 339.148 112.542 339.197 112.639C339.249 112.741 339.28 112.853 339.286 112.968C339.291 113.105 339.286 113.218 339.286 113.311C339.288 113.418 339.281 113.525 339.265 113.631C339.245 113.74 339.21 113.846 339.159 113.944C339.102 114.036 339.025 114.113 338.932 114.169C338.855 114.219 338.764 114.242 338.672 114.235M341.846 111.788H340.327V114.788H340.969V113.598H341.782V113.041H340.969V112.346H341.844V111.788" fill="white"/>
<defs>
<linearGradient id="paint0_linear_344_6" x1="408.809" y1="373.946" x2="414.645" y2="384.054" gradientUnits="userSpaceOnUse">
<stop stop-color="#18884F"/>
<stop offset="0.5" stop-color="#117E43"/>
<stop offset="1" stop-color="#0B6631"/>
</linearGradient>
<linearGradient id="paint1_linear_344_6" x1="248.809" y1="371.946" x2="254.645" y2="382.054" gradientUnits="userSpaceOnUse">
<stop stop-color="#2368C4"/>
<stop offset="0.5" stop-color="#1A5DBE"/>
<stop offset="1" stop-color="#1146AC"/>
</linearGradient>
</defs>
</svg>
